<svg width="38" height="38" viewBox="0 0 38 38" fill="none" xmlns="http://www.w3.org/2000/svg">
<g filter="url(#filter0_i_1024_92)">
<path d="M2.88883 25.2359C3.21444 24.0584 3.82595 22.9858 4.68365 22.1148L27.0484 0C28.3667 1.33871 33.8147 6.87114 38 11.1211L15.6353 33.2359C14.7855 34.0988 13.7213 34.7279 12.5618 35.0585L2.41233 37.9295C1.75316 38.115 1.03841 37.9295 0.553967 37.4295C0.0695238 36.9295 -0.113135 36.2118 0.0695237 35.5424L2.88883 25.2359ZM5.83496 26.2202C4.22165 27.1768 2.63205 34.9362 2.49704 35.4362C3.00531 35.291 10.69 33.9237 11.9038 32.2765L5.83496 26.2202Z" fill="#753682"/>
</g>
<defs>
<filter id="filter0_i_1024_92" x="0" y="0" width="38" height="42" filterUnits="userSpaceOnUse" color-interpolation-filters="sRGB">
<feFlood flood-opacity="0" result="BackgroundImageFix"/>
<feBlend mode="normal" in="SourceGraphic" in2="BackgroundImageFix" result="shape"/>
<feColorMatrix in="SourceAlpha" type="matrix" values="0 0 0 0 0 0 0 0 0 0 0 0 0 0 0 0 0 0 127 0" result="hardAlpha"/>
<feOffset dy="4"/>
<feGaussianBlur stdDeviation="2"/>
<feComposite in2="hardAlpha" operator="arithmetic" k2="-1" k3="1"/>
<feColorMatrix type="matrix" values="0 0 0 0 0 0 0 0 0 0 0 0 0 0 0 0 0 0 0.25 0"/>
<feBlend mode="normal" in2="shape" result="effect1_innerShadow_1024_92"/>
</filter>
</defs>
</svg>
